# This file uses centimeters as units for non-parametric coordinates.

mtllib WheelT.mtl
g default
v -0.214647 -0.519336 0.519336
v 0.214647 -0.519336 0.519336
v -0.214647 0.519336 0.519336
v 0.214647 0.519336 0.519336
v -0.214647 0.519336 -0.519336
v 0.214647 0.519336 -0.519336
v -0.214647 -0.519336 -0.519336
v 0.214647 -0.519336 -0.519336
v -0.201159 -0.289582 -0.236045
v -0.201159 -0.289582 0.236045
v -0.201159 0.289582 0.236045
v -0.201159 0.289582 -0.236045
v -0.780322 -0.289582 -0.236045
v -0.780322 -0.289582 0.236045
v -0.780322 0.289582 0.236045
v -0.780322 0.289582 -0.236045
vt 0.001992 0.001935
vt 0.157091 0.001935
vt 0.157091 0.377195
vt 0.001992 0.377195
vt 0.163950 0.001936
vt 0.319049 0.001936
vt 0.319049 0.377195
vt 0.163950 0.377195
vt 0.325713 0.001936
vt 0.480812 0.001936
vt 0.480812 0.377195
vt 0.325713 0.377195
vt 0.487476 0.001936
vt 0.642575 0.001936
vt 0.642575 0.377195
vt 0.487476 0.377195
vt 0.622748 0.381186
vt 0.998008 0.381186
vt 0.998008 0.756446
vt 0.622748 0.756446
vt 0.064658 0.381186
vt 0.235218 0.381186
vt 0.235218 0.590431
vt 0.064658 0.590431
vt 0.241354 0.381186
vt 0.616613 0.381186
vt 0.514264 0.464194
vt 0.343703 0.464194
vt 0.616613 0.756446
vt 0.514264 0.673439
vt 0.241354 0.756446
vt 0.343703 0.673439
vt 0.434854 0.760437
vt 0.605415 0.760437
vt 0.605415 0.969682
vt 0.434854 0.969682
vt 0.211236 0.594423
vt 0.211236 0.803668
vt 0.001992 0.803668
vt 0.001992 0.594423
vt 0.612209 0.760437
vt 0.782769 0.760437
vt 0.782769 0.969682
vt 0.612209 0.969682
vt 0.427765 0.760437
vt 0.427765 0.969682
vt 0.218521 0.969682
vt 0.218521 0.760437
vn 0.000000 0.000000 1.000000
vn 0.000000 0.000000 1.000000
vn 0.000000 0.000000 1.000000
vn 0.000000 0.000000 1.000000
vn 0.000000 1.000000 0.000000
vn 0.000000 1.000000 0.000000
vn 0.000000 1.000000 0.000000
vn 0.000000 1.000000 0.000000
vn 0.000000 1.000000 0.000000
vn 0.000000 1.000000 0.000000
vn 0.000000 0.000000 -1.000000
vn 0.000000 0.000000 -1.000000
vn 0.000000 0.000000 -1.000000
vn 0.000000 0.000000 -1.000000
vn 0.000000 -1.000000 0.000000
vn 0.000000 -1.000000 0.000000
vn 0.000000 -1.000000 0.000000
vn 0.000000 -1.000000 0.000000
vn 1.000000 0.000000 0.000000
vn 1.000000 0.000000 0.000000
vn 1.000000 0.000000 0.000000
vn 1.000000 0.000000 0.000000
vn -1.000000 0.000000 0.000000
vn -1.000000 0.000000 0.000000
vn -1.000000 0.000000 0.000000
vn -1.000000 0.000000 0.000000
vn -0.998281 0.058605 0.000000
vn -0.998281 0.058605 0.000000
vn -0.998281 0.058605 0.000000
vn -0.998281 0.058606 0.000000
vn -0.998281 0.058605 0.000000
vn -0.998281 0.058606 0.000000
vn -0.998869 0.000000 -0.047557
vn -0.998869 0.000000 -0.047557
vn -0.998869 0.000000 -0.047557
vn -0.998869 0.000000 -0.047557
vn -0.998869 0.000000 -0.047557
vn -0.998869 0.000000 -0.047557
vn -0.998281 -0.058605 0.000000
vn -0.998281 -0.058605 0.000000
vn -0.998281 -0.058605 0.000000
vn -0.998281 -0.058606 0.000000
vn -0.998281 -0.058605 0.000000
vn -0.998281 -0.058606 0.000000
vn -0.998869 0.000000 0.047557
vn -0.998869 0.000000 0.047557
vn -0.998869 0.000000 0.047557
vn -0.998869 0.000000 0.047557
vn -0.998869 0.000000 0.047557
vn -0.998869 0.000000 0.047557
vn 0.000000 -1.000000 0.000000
vn 0.000000 -1.000000 0.000000
vn 0.000000 -1.000000 0.000000
vn 0.000000 -1.000000 0.000000
vn 0.000000 0.000000 1.000000
vn 0.000000 0.000000 1.000000
vn 0.000000 0.000000 1.000000
vn 0.000000 0.000000 1.000000
vn 0.000000 1.000000 0.000000
vn 0.000000 1.000000 0.000000
vn 0.000000 1.000000 0.000000
vn 0.000000 1.000000 0.000000
vn 0.000000 0.000000 -1.000000
vn 0.000000 0.000000 -1.000000
vn 0.000000 0.000000 -1.000000
vn 0.000000 0.000000 -1.000000
s 1
g pCube1
usemtl initialShadingGroup
f 1/1/1 2/2/2 3/4/3
f 3/4/3 2/2/2 4/3/4
s off
f 3/5/5 4/6/6 5/8/7
f 5/8/8 4/6/9 6/7/10
s 2
f 5/9/11 6/10/12 7/12/13
f 7/12/13 6/10/12 8/11/14
s 3
f 7/13/15 8/14/16 1/16/17
f 1/16/17 8/14/16 2/15/18
s 4
f 2/17/19 8/18/20 4/20/21
f 4/20/21 8/18/20 6/19/22
s 5
f 13/21/23 14/22/24 16/24/25
f 16/24/25 14/22/24 15/23/26
s off
f 7/25/27 1/26/28 9/28/29
f 9/28/30 1/26/31 10/27/32
f 1/26/33 3/29/34 10/27/35
f 10/27/36 3/29/37 11/30/38
f 3/29/39 5/31/40 11/30/41
f 11/30/42 5/31/43 12/32/44
f 5/31/45 7/25/46 12/32/47
f 12/32/48 7/25/49 9/28/50
s 6
f 9/33/51 10/34/52 13/36/53
f 13/36/53 10/34/52 14/35/54
s 7
f 10/37/55 11/38/56 14/40/57
f 14/40/57 11/38/56 15/39/58
s 8
f 11/41/59 12/42/60 15/44/61
f 15/44/61 12/42/60 16/43/62
s 9
f 12/45/63 9/46/64 16/48/65
f 16/48/65 9/46/64 13/47/66
