# This file uses centimeters as units for non-parametric coordinates.

mtllib xxxT.mtl
v -0.500000 -0.500000 0.500000
v 0.500000 -0.500000 0.500000
v -0.500000 0.500000 0.500000
v 0.500000 0.500000 0.500000
v -0.500000 0.500000 -0.500000
v 0.500000 0.500000 -0.500000
v -0.500000 -0.500000 -0.500000
v 0.500000 -0.500000 -0.500000
v 0.166667 0.500000 0.500000
v 0.166667 0.500000 -0.500000
v 0.166667 -0.500000 -0.500000
v 0.166667 -0.500000 0.500000
v -0.166667 0.500000 0.500000
v -0.166667 0.500000 -0.500000
v -0.166667 -0.500000 -0.500000
v -0.166667 -0.500000 0.500000
v 0.500000 0.500000 -0.166667
v 0.166667 0.989308 -0.166667
v -0.166667 0.989308 -0.166667
v -0.500000 0.500000 -0.166667
v -0.500000 -0.500000 -0.166667
v -0.397203 -0.500000 -0.397203
v 0.397203 -0.500000 -0.397203
v 0.500000 -0.500000 -0.166667
v 0.500000 0.500000 0.166667
v 0.166667 0.989308 0.166667
v -0.166667 0.989308 0.166667
v -0.500000 0.500000 0.166667
v -0.500000 -0.500000 0.166667
v -0.397203 -0.500000 0.397203
v 0.397203 -0.500000 0.397203
v 0.500000 -0.500000 0.166667
v 0.500000 -0.166667 -0.500000
v 0.166667 -0.166667 -0.500000
v -0.166667 -0.166667 -0.500000
v -0.500000 -0.166667 -0.500000
v -0.500000 -0.090249 -0.090249
v -0.500000 -0.090249 0.090249
v -0.500000 -0.166667 0.500000
v -0.166667 -0.166667 0.146025
v 0.166667 -0.166667 0.146025
v 0.500000 -0.166667 0.500000
v 0.500000 -0.166667 0.166667
v 0.500000 -0.166667 -0.166667
v 0.500000 0.166667 -0.500000
v 0.166667 0.166667 -0.500000
v -0.166667 0.166667 -0.500000
v -0.500000 0.166667 -0.500000
v -0.500000 0.090249 -0.090249
v -0.500000 0.090249 0.090249
v -0.500000 0.166667 0.500000
v -0.166667 0.166667 0.146025
v 0.166667 0.166667 0.146025
v 0.500000 0.166667 0.500000
v 0.500000 0.166667 0.166667
v 0.500000 0.166667 -0.166667
v 0.166667 1.846881 0.166667
v -0.166667 1.846881 0.166667
v 0.166667 1.846881 -0.166667
v -0.166667 1.846881 -0.166667
v 0.303476 0.166667 0.166667
v 0.303476 0.166667 -0.166667
v 0.303476 -0.166667 0.166667
v 0.303476 -0.166667 -0.166667
vt 0.001992 0.161770
vt 0.082069 0.241848
vt 0.001992 0.241848
vt 0.082069 0.161770
vt 0.162146 0.241848
vt 0.082069 0.081693
vt 0.162146 0.161770
vt 0.082069 0.359395
vt 0.001992 0.081693
vt 0.162146 0.081693
vt 0.242224 0.161770
vt 0.162146 0.359395
vt 0.082069 0.001616
vt 0.162146 0.001616
vt 0.242224 0.081693
vt 0.242224 0.241848
vt 0.242224 0.241848
vt 0.082069 0.565411
vt 0.001992 0.001616
vt 0.162146 0.565411
vt 0.242224 0.001616
vt 0.445793 0.569402
vt 0.525870 0.569402
vt 0.445793 0.649480
vt 0.249704 0.325179
vt 0.329781 0.325179
vt 0.249704 0.405257
vt 0.329781 0.405257
vt 0.409858 0.405257
vt 0.249704 0.485334
vt 0.409858 0.325179
vt 0.409858 0.485334
vt 0.329781 0.485334
vt 0.409858 0.207632
vt 0.489935 0.405257
vt 0.489935 0.485334
vt 0.249704 0.565411
vt 0.329781 0.207632
vt 0.489935 0.325179
vt 0.409858 0.565411
vt 0.489935 0.565411
vt 0.329781 0.565411
vt 0.409858 0.001616
vt 0.249704 0.325179
vt 0.329781 0.001616
vt 0.757776 0.729557
vt 0.782471 0.784939
vt 0.757776 0.809634
vt 0.782471 0.594097
vt 0.837854 0.809634
vt 0.757776 0.649480
vt 0.973313 0.594097
vt 0.917931 0.809634
vt 0.757776 0.569402
vt 0.973313 0.784939
vt 0.917931 0.569402
vt 0.837854 0.569402
vt 0.998008 0.649480
vt 0.998008 0.569402
vt 0.998008 0.809634
vt 0.998008 0.729557
vt 0.497221 0.161770
vt 0.577298 0.161770
vt 0.497221 0.241848
vt 0.577298 0.081693
vt 0.577298 0.241848
vt 0.497221 0.081693
vt 0.657375 0.241848
vt 0.577298 0.001616
vt 0.657375 0.161770
vt 0.657375 0.359395
vt 0.497221 0.001616
vt 0.657375 0.001616
vt 0.737452 0.241848
vt 0.577298 0.359395
vt 0.657375 0.081693
vt 0.737452 0.161770
vt 0.577298 0.565411
vt 0.737452 0.001616
vt 0.737452 0.081693
vt 0.657375 0.565411
vt 0.886534 0.143413
vt 0.984969 0.161770
vt 0.904892 0.241848
vt 0.984969 0.081693
vt 0.984969 0.241848
vt 0.824815 0.241848
vt 0.886534 0.100051
vt 0.843173 0.143413
vt 0.904892 0.359395
vt 0.904892 0.001616
vt 0.744738 0.161770
vt 0.824815 0.359395
vt 0.984969 0.001616
vt 0.843173 0.100051
vt 0.744738 0.241848
vt 0.824815 0.565411
vt 0.824815 0.001616
vt 0.744738 0.081693
vt 0.904892 0.565411
vt 0.744738 0.001616
vt 0.439657 0.569402
vt 0.439657 0.649480
vt 0.359580 0.569402
vt 0.665429 0.569402
vt 0.585352 0.649480
vt 0.585352 0.569402
vt 0.273368 0.649480
vt 0.353445 0.569402
vt 0.353445 0.649480
vt 0.187155 0.569402
vt 0.267232 0.649480
vt 0.187155 0.649480
vt 0.100943 0.649480
vt 0.100943 0.569402
vt 0.181020 0.649480
vt 0.181020 0.569402
vt 0.094807 0.649480
vt 0.014730 0.649480
vt 0.094807 0.569402
vt 0.014730 0.569402
vt 0.103969 0.653471
vt 0.103969 0.733548
vt 0.056758 0.653471
vt 0.056758 0.733548
vt 0.579216 0.569402
vt 0.579216 0.649480
vt 0.532005 0.569402
vt 0.532005 0.649480
vt 0.158540 0.653471
vt 0.158540 0.733548
vt 0.111328 0.653471
vt 0.111328 0.733548
vt 0.049203 0.653471
vt 0.049203 0.733548
vt 0.001992 0.653471
vt 0.001992 0.733548
vt 0.671564 0.569402
vt 0.751641 0.569402
vt 0.671564 0.686950
vn 0.396661 -0.396661 0.827841
vn -0.076671 0.095996 0.992424
vn -0.293309 -0.300010 0.907724
vn -0.577350 0.577350 0.577350
vn -0.896612 0.398485 0.193124
vn -0.662959 0.347808 0.662959
vn -0.577350 0.577350 -0.577350
vn -0.209157 0.431567 -0.877498
vn -0.761625 0.000000 -0.648019
vn 0.000000 0.000000 -1.000000
vn -0.873977 -0.485968 0.000000
vn 0.000000 -1.000000 -0.000000
vn -0.690871 -0.213058 0.690871
vn 0.279794 0.452831 0.846557
vn 0.094742 -0.312401 0.945214
vn 0.963481 -0.189347 -0.189347
vn 0.577350 0.577350 0.577350
vn 0.877499 0.431567 0.209157
vn -1.000000 0.000000 0.000000
vn 0.076671 0.095996 0.992424
vn 0.662959 0.347809 0.662959
vn 0.000000 0.000000 -1.000000
vn 0.209157 0.431567 -0.877498
vn 0.707107 0.000000 -0.707107
vn 0.577350 0.577350 -0.577350
vn -0.307301 0.202650 0.929784
vn 0.000000 -1.000000 0.000000
vn 0.690871 -0.213058 0.690871
vn 0.955591 -0.294695 0.000000
vn -0.396661 -0.396661 0.827841
vn 0.662959 0.347808 -0.662959
vn 0.877498 0.431567 -0.209157
vn -0.662959 0.347808 -0.662959
vn -0.891753 0.407219 -0.197357
vn -1.000000 0.000000 0.000000
vn 0.000000 -0.294695 -0.955591
vn 0.000000 -1.000000 0.000000
vn -0.690871 -0.213058 -0.690871
vn -0.970561 -0.240854 0.000000
vn 0.000000 -1.000000 -0.000000
vn 0.000000 -0.547060 -0.837093
vn 0.837093 -0.547060 0.000000
vn 0.690871 -0.213058 -0.690871
vn 0.963481 -0.189347 0.189347
vn -0.681823 0.265020 0.681823
vn 0.681823 0.265020 0.681823
vn -0.681823 0.265020 -0.681823
vn 0.681823 0.265020 -0.681823
vn 0.000000 0.000000 -1.000000
vn 0.707107 0.000000 -0.707107
vn 0.000000 0.000000 -1.000000
vn -0.779082 0.000000 -0.626922
vn -1.000000 0.000000 0.000000
vn -1.000000 0.000000 0.000000
vn -0.240741 0.304583 0.921560
vn 0.396661 0.396661 0.827841
vn -0.396661 0.396661 0.827841
vn 0.094742 0.312401 0.945214
vn 0.963481 0.189347 -0.189347
vn 0.963481 0.189347 0.189347
vn 0.768052 -0.452822 0.452822
vn 0.768052 -0.452822 -0.452822
vn 0.768052 0.452822 0.452822
vn 0.768052 0.452822 -0.452822
s 1
usemtl initialShadingGroup
f 52/4/1 13/2/2 51/1/3
f 51/1/3 13/2/2 3/3/4
f 3/22/4 13/23/2 28/24/5
f 28/138/5 13/139/2 27/140/6
f 5/25/7 14/26/8 48/27/9
f 48/27/9 14/26/8 47/28/10
f 29/46/11 30/47/12 1/48/13
f 1/48/13 30/47/12 16/50/14
f 54/62/15 55/63/16 4/64/17
f 4/64/17 55/63/16 25/66/18
f 50/82/19 51/83/3 28/84/5
f 28/84/5 51/83/3 3/86/4
f 4/102/17 25/103/18 9/104/20
f 9/5/20 25/17/18 26/12/21
f 46/29/22 10/31/23 45/35/24
f 45/105/24 10/106/23 6/107/25
f 12/53/26 31/55/27 2/60/28
f 2/60/28 31/55/27 32/61/29
f 53/7/30 54/11/15 9/5/20
f 9/5/20 54/11/15 4/16/17
f 13/2/2 9/5/20 27/8/6
f 27/8/6 9/5/20 26/12/21
f 47/28/10 14/26/8 46/29/22
f 46/29/22 14/26/8 10/31/23
f 16/50/14 30/47/12 12/53/26
f 12/53/26 30/47/12 31/55/27
f 13/2/2 52/4/1 9/5/20
f 9/5/20 52/4/1 53/7/30
f 18/34/31 17/39/32 10/31/23
f 10/108/23 17/109/32 6/110/25
f 19/38/33 18/34/31 14/26/8
f 14/26/8 18/34/31 10/31/23
f 19/38/33 14/26/8 20/44/34
f 20/111/34 14/112/8 5/113/7
f 49/89/35 20/87/34 48/92/9
f 48/92/9 20/87/34 5/96/7
f 15/57/36 22/49/37 7/54/38
f 7/54/38 22/49/37 21/51/39
f 23/52/40 22/49/37 11/56/41
f 11/56/41 22/49/37 15/57/36
f 24/58/42 23/52/40 8/59/43
f 8/59/43 23/52/40 11/56/41
f 17/68/32 56/70/44 6/74/25
f 6/74/25 56/70/44 45/77/24
f 26/75/21 25/66/18 18/71/31
f 18/71/31 25/66/18 17/68/32
f 58/114/45 57/115/46 60/116/47
f 60/116/47 57/115/46 59/117/48
f 28/84/5 27/90/6 20/87/34
f 20/87/34 27/90/6 19/93/33
f 49/89/35 50/82/19 20/87/34
f 20/87/34 50/82/19 28/84/5
f 21/51/39 22/49/37 29/46/11
f 29/46/11 22/49/37 30/47/12
f 31/55/27 30/47/12 23/52/40
f 23/52/40 30/47/12 22/49/37
f 32/61/29 31/55/27 24/58/42
f 24/58/42 31/55/27 23/52/40
f 25/66/18 55/63/16 17/68/32
f 17/68/32 55/63/16 56/70/44
f 11/40/41 34/32/49 8/41/43
f 8/41/43 34/32/49 33/36/50
f 15/42/36 35/33/51 11/40/41
f 11/40/41 35/33/51 34/32/49
f 36/30/52 35/33/51 7/37/38
f 7/37/38 35/33/51 15/42/36
f 7/101/38 21/98/39 36/99/52
f 36/99/52 21/98/39 37/95/53
f 21/98/39 29/91/11 37/95/53
f 37/95/53 29/91/11 38/88/54
f 1/94/13 39/85/55 29/91/11
f 29/91/11 39/85/55 38/88/54
f 1/19/13 16/13/14 39/9/55
f 39/9/55 16/13/14 40/6/56
f 41/10/57 40/6/56 12/14/26
f 12/14/26 40/6/56 16/13/14
f 41/10/57 12/14/26 42/15/58
f 42/15/58 12/14/26 2/21/28
f 2/72/28 32/69/29 42/67/58
f 42/67/58 32/69/29 43/65/59
f 44/76/60 43/65/59 24/73/42
f 24/73/42 43/65/59 32/69/29
f 33/80/50 44/76/60 8/79/43
f 8/79/43 44/76/60 24/73/42
f 34/32/49 46/29/22 33/36/50
f 33/36/50 46/29/22 45/35/24
f 35/33/51 47/28/10 34/32/49
f 34/32/49 47/28/10 46/29/22
f 48/27/9 47/28/10 36/30/52
f 36/30/52 47/28/10 35/33/51
f 36/99/52 37/95/53 48/92/9
f 48/92/9 37/95/53 49/89/35
f 37/95/53 38/88/54 49/89/35
f 49/89/35 38/88/54 50/82/19
f 38/88/54 39/85/55 50/82/19
f 50/82/19 39/85/55 51/83/3
f 39/9/55 40/6/56 51/1/3
f 51/1/3 40/6/56 52/4/1
f 53/7/30 52/4/1 41/10/57
f 41/10/57 52/4/1 40/6/56
f 54/11/15 53/7/30 42/15/58
f 42/15/58 53/7/30 41/10/57
f 42/67/58 43/65/59 54/62/15
f 54/62/15 43/65/59 55/63/16
f 62/118/61 61/119/62 64/120/63
f 64/120/63 61/119/62 63/121/64
f 45/77/24 56/70/44 33/80/50
f 33/80/50 56/70/44 44/76/60
f 27/8/6 26/12/21 58/18/45
f 58/18/45 26/12/21 57/20/46
f 26/75/21 18/71/31 57/78/46
f 57/78/46 18/71/31 59/81/48
f 18/34/31 19/38/33 59/43/48
f 59/43/48 19/38/33 60/45/47
f 19/93/33 27/90/6 60/97/47
f 60/97/47 27/90/6 58/100/45
f 56/122/44 55/123/16 62/124/61
f 62/124/61 55/123/16 61/125/62
f 55/126/16 43/127/59 61/128/62
f 61/128/62 43/127/59 63/129/64
f 43/130/59 44/131/60 63/132/64
f 63/132/64 44/131/60 64/133/63
f 44/134/60 56/135/44 64/136/63
f 64/136/63 56/135/44 62/137/61
